<svg width="114" height="120" viewBox="0 0 114 120" fill="none" xmlns="http://www.w3.org/2000/svg">
<path d="M35.5617 0.0709297L35.5617 81.2685L44.2856 97.8877L44.2857 0.0709305L35.5617 0.0709297Z" fill="white"/>
<path d="M18.1448 0.0709449L18.1448 48.0162L26.854 64.6494L26.854 0.0709457L18.1448 0.0709449Z" fill="white"/>
<path d="M0.623536 0.070861L0.623535 14.595L9.4209 31.397L9.4209 0.0708618L0.623536 0.070861Z" fill="white"/>
<path d="M87.8474 0.0709488L87.8474 57.5771L96.5713 40.9439L96.5713 0.0709496L87.8474 0.0709488Z" fill="white"/>
<path d="M105.28 0.0703785L105.28 24.3242L113.99 7.70506L113.99 0.0703793L105.28 0.0703785Z" fill="white"/>
<path d="M52.9973 0.0707161L52.9973 114.521L55.5087 119.287L61.7065 107.448L61.7066 0.0707169L52.9973 0.0707161Z" fill="white"/>
<path d="M70.428 0.0709449L70.428 90.8154L79.1372 74.1963L79.1372 0.0709457L70.428 0.0709449Z" fill="white"/>
</svg>
