<svg width="182" height="35" viewBox="0 0 182 35" fill="none" xmlns="http://www.w3.org/2000/svg">
<path d="M14.304 13.2182H11.5649V10.7217H14.304V13.2182ZM14.2309 24.2511H11.6258V13.9873H14.234L14.2309 24.2511Z" fill="#225890"/>
<path d="M22.7797 21.904V24.2509C22.5261 24.314 22.2674 24.3548 22.0067 24.373C21.5311 24.4304 21.0523 24.4569 20.5733 24.4524C19.2728 24.4524 18.3273 24.1838 17.7369 23.6466C17.1282 23.1125 16.8482 22.2336 16.8482 21.0158V16.2181H15.6309V13.5507H16.8482V11.0542H20.0377V13.5507H22.7767V16.2181H20.0377V19.853C20.0188 20.1671 20.0188 20.482 20.0377 20.7961C20.0426 20.9712 20.0964 21.1414 20.1929 21.2875C20.2931 21.4951 20.4491 21.6705 20.6433 21.7941C20.9365 21.9368 21.2613 22.0019 21.5867 21.9833" fill="#225890"/>
<path d="M11.8663 32.1097C8.33803 30.8553 5.36601 28.3897 3.47612 25.1492C1.58623 21.9088 0.900316 18.1023 1.53975 14.4035C2.17919 10.7047 4.10276 7.3519 6.97007 4.93848C9.83738 2.52507 13.4636 1.20659 17.207 1.21636C20.9504 1.22614 24.5697 2.56353 27.4245 4.99189C30.2792 7.42024 32.1853 10.783 32.8056 14.4851C33.4258 18.1872 32.7201 21.9901 30.8134 25.2206C28.9067 28.4512 25.9219 30.9012 22.3872 32.1372" stroke="#225890" stroke-width="1.10779" stroke-miterlimit="10" stroke-linecap="round"/>
<path d="M17.9835 32.1709H16.0693C15.6877 32.1709 15.3784 32.4811 15.3784 32.8637V33.2818C15.3784 33.6644 15.6877 33.9746 16.0693 33.9746H17.9835C18.3651 33.9746 18.6744 33.6644 18.6744 33.2818V32.8637C18.6744 32.4811 18.3651 32.1709 17.9835 32.1709Z" fill="#225890" stroke="#225890" stroke-width="0.797365" stroke-miterlimit="10"/>
<path d="M37.1899 5.79883H41.4507V9.61989H37.1899V5.79883ZM37.1899 12.1439H41.4507V27.6113H37.1899V12.1439Z" fill="#225890"/>
<path d="M44.2477 16.0411C44.2477 14.7257 44.2477 13.2943 44.2173 12.1437H48.3532C48.4423 12.7976 48.4971 13.4557 48.5176 14.1153C49.041 13.1447 50.2888 11.7866 52.9913 11.7866C56.0895 11.7866 58.1012 13.8833 58.1012 17.7715V27.6111H53.8404V18.2507C53.8404 16.5111 53.2622 15.2506 51.3783 15.2506C49.5523 15.2506 48.5267 16.2639 48.5267 18.9954V27.6141H44.266L44.2477 16.0411Z" fill="#225890"/>
<path d="M60.8429 16.0411C60.8429 14.7257 60.8429 13.2943 60.8125 12.1437H64.9484C65.0375 12.7976 65.0923 13.4557 65.1128 14.1153C65.6363 13.1447 66.884 11.7866 69.5866 11.7866C72.6847 11.7866 74.6964 13.8833 74.6964 17.7715V27.6111H70.4357V18.2507C70.4357 16.5111 69.8574 15.2506 67.9736 15.2506C66.1475 15.2506 65.1219 16.2639 65.1219 18.9954V27.6141H60.8612L60.8429 16.0411Z" fill="#225890"/>
<path d="M80.8076 20.793C80.8076 22.7279 81.7784 24.6171 83.9027 24.6171C85.68 24.6171 86.1883 23.9029 86.593 22.966H90.8538C90.309 24.8582 88.623 27.9682 83.7779 27.9682C78.6985 27.9682 76.4951 24.1593 76.4951 20.1002C76.4951 15.2506 78.9785 11.7866 83.9301 11.7866C89.2286 11.7866 91.0303 15.6291 91.0303 19.4898C91.0417 19.925 91.0224 20.3605 90.9725 20.793H80.8076ZM86.7635 18.1622C86.733 16.3615 86.0178 14.8477 83.9362 14.8477C81.8545 14.8477 81.0663 16.2608 80.8928 18.1622H86.7635Z" fill="#225890"/>
<path d="M94.0373 16.3402C94.0373 14.8142 94.0373 13.4377 94.0068 12.1437H98.2097C98.2645 12.4916 98.3223 14.0268 98.3223 14.86C99.001 13.0929 100.647 11.808 103.268 11.7866V15.8702C100.17 15.7908 98.3223 16.627 98.3223 20.8662V27.6111H94.0616L94.0373 16.3402Z" fill="#225890"/>
<path d="M115.447 12.1469H117.824V7.95654H122.085V12.1469H125.107V15.3637H122.085V22.9936C122.085 24.1656 122.444 24.6234 123.716 24.6234C124.04 24.628 124.365 24.6116 124.687 24.5745V27.5197C123.841 27.8249 122.678 27.8249 121.817 27.8249C118.81 27.8249 117.815 26.2104 117.815 23.5063V15.3637H115.438L115.447 12.1469Z" fill="#225890"/>
<path d="M130.862 20.793C130.862 22.7279 131.83 24.6171 133.957 24.6171C135.735 24.6171 136.243 23.9029 136.648 22.966H140.908C140.361 24.8582 138.678 27.9682 133.833 27.9682C128.753 27.9682 126.55 24.1593 126.55 20.1002C126.55 15.2506 129.033 11.7866 133.985 11.7866C139.283 11.7866 141.082 15.6291 141.082 19.4898C141.093 19.9249 141.074 20.3603 141.027 20.793H130.862ZM136.818 18.1622C136.788 16.3615 136.073 14.8477 133.991 14.8477C131.909 14.8477 131.121 16.2608 130.947 18.1622H136.818Z" fill="#225890"/>
<path d="M156.791 23.613C156.785 24.9486 156.854 26.2834 156.998 27.6111H152.92C152.787 27.1132 152.714 26.6007 152.704 26.0851C152.144 26.9549 151.097 27.956 148.367 27.956C144.648 27.956 143.081 25.5144 143.081 23.1064C143.081 19.5814 145.902 17.9577 150.425 17.9577H152.625V17.0299C152.625 15.9312 152.229 14.8508 150.251 14.8508C148.447 14.8508 148.054 15.6169 147.856 16.7369H143.796C144.028 13.9902 145.723 11.7653 150.413 11.7927C154.542 11.8171 156.804 13.4377 156.804 17.1184L156.791 23.613ZM152.628 20.561H150.89C148.316 20.561 147.363 21.3485 147.363 22.8378C147.363 23.9579 148.048 24.9009 149.582 24.9009C152.296 24.9009 152.625 23.0087 152.625 20.967L152.628 20.561Z" fill="#225890"/>
<path d="M159.582 16.1296C159.582 14.7928 159.582 13.4683 159.552 12.1437H163.642C163.697 12.5221 163.782 13.3859 163.806 13.9749C164.589 12.8243 165.827 11.7744 168.091 11.7744C170.31 11.7744 171.527 12.925 172.072 14.1275C172.985 12.8609 174.306 11.7744 176.823 11.7744C179.51 11.7744 181.711 13.4286 181.711 17.4511V27.5989H177.538V17.9852C177.538 16.5874 177.033 15.2384 175.286 15.2384C173.46 15.2384 172.763 16.4104 172.763 18.7817V27.6325H168.575V18.1713C168.575 16.5691 168.183 15.272 166.36 15.272C164.622 15.272 163.8 16.3432 163.8 18.9954V27.6355H159.582V16.1296Z" fill="#225890"/>
<path d="M110.612 19.4165H108.241C107.634 19.4165 107.142 19.9098 107.142 20.5183V20.677C107.142 21.2855 107.634 21.7787 108.241 21.7787H110.612C111.218 21.7787 111.71 21.2855 111.71 20.677V20.5183C111.71 19.9098 111.218 19.4165 110.612 19.4165Z" fill="#225890" stroke="#225890" stroke-width="0.377379" stroke-miterlimit="10"/>
</svg>
