<svg width="366" height="372" viewBox="0 0 366 372" fill="none" xmlns="http://www.w3.org/2000/svg">
<path d="M135 246H102V117H135V246Z" fill="#225890"/>
<path fill-rule="evenodd" clip-rule="evenodd" d="M239.232 24.2511C151.565 -6.79014 55.3189 39.0828 24.2618 126.711L17.4126 124.286L24.2618 126.711C-6.79321 214.34 39.1002 310.543 126.768 341.587C130.554 342.927 132.536 347.083 131.195 350.867C129.853 354.652 125.696 356.633 121.91 355.292C26.6699 321.568 -23.1877 217.054 10.5499 121.856L10.5499 121.856C44.2897 26.658 148.849 -23.1774 244.09 10.5452L241.662 17.3948L244.09 10.5453C339.332 44.2701 389.187 148.781 355.45 243.981L355.45 243.982C336.176 298.362 293.784 337.941 243.252 355.591C239.46 356.916 235.312 354.917 233.986 351.126C232.661 347.336 234.661 343.189 238.453 341.865C285.002 325.606 323.999 289.177 341.738 239.126C372.793 151.496 326.902 55.2944 239.232 24.2511Z" fill="#225890"/>
<path d="M189.902 369H173.098C167.521 369 163 364.522 163 358.998C163 353.476 167.521 349 173.098 349H189.902C195.479 349 200 353.476 200 358.998C200 364.522 195.479 369 189.902 369Z" fill="#225890"/>
<path fill-rule="evenodd" clip-rule="evenodd" d="M173.205 352.37C169.486 352.37 166.471 355.338 166.471 358.998C166.471 362.661 169.487 365.63 173.205 365.63H189.795C193.513 365.63 196.529 362.661 196.529 358.998C196.529 355.338 193.514 352.37 189.795 352.37H173.205ZM160 358.998C160 351.818 165.913 346 173.205 346H189.795C197.087 346 203 351.818 203 358.998C203 366.179 197.088 372 189.795 372H173.205C165.912 372 160 366.179 160 358.998Z" fill="#225890"/>
<path fill-rule="evenodd" clip-rule="evenodd" d="M173.205 352.37C169.486 352.37 166.471 355.338 166.471 358.998C166.471 362.661 169.487 365.63 173.205 365.63H189.795C193.513 365.63 196.529 362.661 196.529 358.998C196.529 355.338 193.514 352.37 189.795 352.37H173.205ZM160 358.998C160 351.818 165.913 346 173.205 346H189.795C197.087 346 203 351.818 203 358.998C203 366.179 197.088 372 189.795 372H173.205C165.912 372 160 366.179 160 358.998Z" fill="#225890"/>
<path d="M231.739 122C246.1 122 257.531 126.69 266.031 136.071C274.677 145.305 279 158.057 279 174.326V246H241.631V179.383C241.631 171.175 239.506 164.799 235.256 160.255C231.006 155.712 225.291 153.44 218.11 153.44C210.929 153.44 205.214 155.712 200.964 160.255C196.714 164.799 194.589 171.175 194.589 179.383V246H157V123.319H194.589V139.589C198.399 134.165 203.529 129.915 209.977 126.837C216.425 123.612 223.679 122 231.739 122Z" fill="#225890"/>
</svg>
