<svg width="182" height="35" viewBox="0 0 182 35" fill="none" xmlns="http://www.w3.org/2000/svg">
<path d="M13.01 22.8839H10.15V11.5236H13.01V22.8839Z" fill="#225890"/>
<path fill-rule="evenodd" clip-rule="evenodd" d="M22.0435 3.35566C14.4456 0.622031 6.1043 4.66181 3.41269 12.3788L2.81909 12.1652L3.41269 12.3788C0.721253 20.0957 4.69868 28.5678 12.2965 31.3017C12.6247 31.4197 12.7965 31.7856 12.6802 32.1189C12.564 32.4523 12.2037 32.6267 11.8755 32.5086C3.62139 29.5387 -0.699602 20.3348 2.22432 11.9512L2.22433 11.9512C5.14844 3.56763 14.2103 -0.821105 22.4644 2.14866L22.254 2.75186L22.4644 2.14866C30.7188 5.11863 35.0396 14.3224 32.1157 22.7061L32.1156 22.7061C30.4452 27.4951 26.7713 30.9806 22.3918 32.5349C22.0632 32.6516 21.7037 32.4755 21.5888 32.1417C21.474 31.8079 21.6473 31.4428 21.976 31.3261C26.0101 29.8944 29.3899 26.6862 30.9273 22.2785C33.6187 14.5614 29.6415 6.08947 22.0435 3.35566Z" fill="#225890"/>
<path d="M17.7681 33.7158H16.3119C15.8285 33.7158 15.4367 33.3215 15.4367 32.835C15.4367 32.3487 15.8285 31.9545 16.3119 31.9545H17.7681C18.2515 31.9545 18.6433 32.3487 18.6433 32.835C18.6433 33.3215 18.2515 33.7158 17.7681 33.7158Z" fill="#225890"/>
<path fill-rule="evenodd" clip-rule="evenodd" d="M16.3211 32.2513C15.9987 32.2513 15.7375 32.5126 15.7375 32.835C15.7375 33.1576 15.9989 33.419 16.3211 33.419H17.7589C18.0811 33.419 18.3425 33.1576 18.3425 32.835C18.3425 32.5126 18.0812 32.2513 17.7589 32.2513H16.3211ZM15.1767 32.835C15.1767 32.2027 15.6891 31.6903 16.3211 31.6903H17.7589C18.3909 31.6903 18.9033 32.2027 18.9033 32.835C18.9033 33.4673 18.391 33.98 17.7589 33.98H16.3211C15.689 33.98 15.1767 33.4673 15.1767 32.835Z" fill="#225890"/>
<path fill-rule="evenodd" clip-rule="evenodd" d="M16.3211 32.2513C15.9987 32.2513 15.7375 32.5126 15.7375 32.835C15.7375 33.1576 15.9989 33.419 16.3211 33.419H17.7589C18.0811 33.419 18.3425 33.1576 18.3425 32.835C18.3425 32.5126 18.0812 32.2513 17.7589 32.2513H16.3211ZM15.1767 32.835C15.1767 32.2027 15.6891 31.6903 16.3211 31.6903H17.7589C18.3909 31.6903 18.9033 32.2027 18.9033 32.835C18.9033 33.4673 18.391 33.98 17.7589 33.98H16.3211C15.689 33.98 15.1767 33.4673 15.1767 32.835Z" fill="#225890"/>
<path d="M21.394 11.9639C22.6387 11.9639 23.6293 12.3769 24.366 13.203C25.1153 14.0162 25.49 15.1392 25.49 16.572V22.8839H22.2513V17.0173C22.2513 16.2944 22.0672 15.7329 21.6988 15.3328C21.3305 14.9327 20.8352 14.7326 20.2128 14.7326C19.5905 14.7326 19.0952 14.9327 18.7269 15.3328C18.3585 15.7329 18.1744 16.2944 18.1744 17.0173V22.8839H14.9167V12.08H18.1744V13.5128C18.5046 13.0352 18.9491 12.6609 19.508 12.3898C20.0668 12.1059 20.6955 11.9639 21.394 11.9639Z" fill="#225890"/>
<path d="M37.19 5.79871H41.4508V9.61977H37.19V5.79871ZM37.19 12.1438H41.4508V27.6111H37.19V12.1438Z" fill="#225890"/>
<path d="M44.2476 16.0411C44.2476 14.7257 44.2476 13.2943 44.2172 12.1437H48.3532C48.4422 12.7976 48.497 13.4557 48.5175 14.1153C49.041 13.1448 50.2887 11.7866 52.9913 11.7866C56.0894 11.7866 58.1011 13.8833 58.1011 17.7716V27.6111H53.8404V18.2507C53.8404 16.5111 53.2621 15.2506 51.3783 15.2506C49.5522 15.2506 48.5266 16.2639 48.5266 18.9954V27.6142H44.2659L44.2476 16.0411Z" fill="#225890"/>
<path d="M60.8432 16.0411C60.8432 14.7257 60.8432 13.2943 60.8128 12.1437H64.9487C65.0377 12.7976 65.0926 13.4557 65.113 14.1153C65.6365 13.1448 66.8843 11.7866 69.5868 11.7866C72.685 11.7866 74.6966 13.8833 74.6966 17.7716V27.6111H70.4359V18.2507C70.4359 16.5111 69.8577 15.2506 67.9738 15.2506C66.1478 15.2506 65.1222 16.2639 65.1222 18.9954V27.6142H60.8614L60.8432 16.0411Z" fill="#225890"/>
<path d="M80.8077 20.793C80.8077 22.728 81.7785 24.6171 83.9028 24.6171C85.6801 24.6171 86.1884 23.903 86.5931 22.966H90.8539C90.3091 24.8582 88.6231 27.9682 83.778 27.9682C78.6986 27.9682 76.4952 24.1593 76.4952 20.1002C76.4952 15.2506 78.9786 11.7866 83.9302 11.7866C89.2287 11.7866 91.0304 15.6291 91.0304 19.4898C91.0418 19.925 91.0225 20.3605 90.9725 20.793H80.8077ZM86.7636 18.1622C86.7331 16.3615 86.0179 14.8478 83.9363 14.8478C81.8546 14.8478 81.0664 16.2608 80.8929 18.1622H86.7636Z" fill="#225890"/>
<path d="M94.0372 16.3402C94.0372 14.8142 94.0372 13.4378 94.0068 12.1437H98.2097C98.2645 12.4916 98.3223 14.0268 98.3223 14.86C99.001 13.0929 100.647 11.808 103.268 11.7866V15.8702C100.17 15.7908 98.3223 16.6271 98.3223 20.8662V27.6111H94.0616L94.0372 16.3402Z" fill="#225890"/>
<path d="M115.447 12.1468H117.824V7.95641H122.085V12.1468H125.107V15.3635H122.085V22.9935C122.085 24.1654 122.444 24.6232 123.716 24.6232C124.041 24.6278 124.365 24.6115 124.687 24.5744V27.5195C123.841 27.8247 122.678 27.8247 121.817 27.8247C118.81 27.8247 117.815 26.2102 117.815 23.5062V15.3635H115.438L115.447 12.1468Z" fill="#225890"/>
<path d="M130.862 20.793C130.862 22.728 131.83 24.6171 133.957 24.6171C135.735 24.6171 136.243 23.903 136.648 22.966H140.908C140.361 24.8582 138.678 27.9682 133.832 27.9682C128.753 27.9682 126.55 24.1593 126.55 20.1002C126.55 15.2506 129.033 11.7866 133.985 11.7866C139.283 11.7866 141.082 15.6291 141.082 19.4898C141.093 19.9249 141.074 20.3603 141.027 20.793H130.862ZM136.818 18.1622C136.788 16.3615 136.072 14.8478 133.991 14.8478C131.909 14.8478 131.121 16.2608 130.947 18.1622H136.818Z" fill="#225890"/>
<path d="M156.792 23.613C156.785 24.9486 156.854 26.2834 156.999 27.6111H152.92C152.787 27.1132 152.714 26.6007 152.704 26.0851C152.144 26.9549 151.097 27.956 148.368 27.956C144.649 27.956 143.081 25.5144 143.081 23.1064C143.081 19.5814 145.902 17.9577 150.425 17.9577H152.625V17.0299C152.625 15.9312 152.23 14.8508 150.251 14.8508C148.447 14.8508 148.054 15.6169 147.856 16.737H143.796C144.028 13.9902 145.723 11.7653 150.413 11.7928C154.543 11.8172 156.804 13.4378 156.804 17.1184L156.792 23.613ZM152.628 20.5611H150.891C148.316 20.5611 147.363 21.3485 147.363 22.8378C147.363 23.9579 148.048 24.901 149.582 24.901C152.297 24.901 152.625 23.0088 152.625 20.967L152.628 20.5611Z" fill="#225890"/>
<path d="M159.582 16.1296C159.582 14.7929 159.582 13.4683 159.552 12.1437H163.642C163.697 12.5222 163.782 13.3859 163.807 13.9749C164.589 12.8243 165.827 11.7745 168.092 11.7745C170.31 11.7745 171.528 12.925 172.072 14.1275C172.986 12.861 174.306 11.7745 176.823 11.7745C179.511 11.7745 181.711 13.4286 181.711 17.4511V27.5989H177.538V17.9852C177.538 16.5874 177.033 15.2384 175.286 15.2384C173.46 15.2384 172.763 16.4104 172.763 18.7818V27.6325H168.576V18.1714C168.576 16.5691 168.183 15.272 166.36 15.272C164.622 15.272 163.801 16.3433 163.801 18.9954V27.6355H159.582V16.1296Z" fill="#225890"/>
<path d="M110.611 19.4165H108.241C107.634 19.4165 107.142 19.9098 107.142 20.5183V20.677C107.142 21.2855 107.634 21.7788 108.241 21.7788H110.611C111.218 21.7788 111.71 21.2855 111.71 20.677V20.5183C111.71 19.9098 111.218 19.4165 110.611 19.4165Z" fill="#225890" stroke="#225890" stroke-width="0.377379" stroke-miterlimit="10"/>
</svg>
